{"accessors":[{"bufferView":1,"componentType":5126,"count":53897,"max":[50.43152618408203,49.79582214355469,110.97799682617188],"min":[0,0,0],"type":"VEC3"},{"bufferView":1,"byteOffset":646764,"componentType":5126,"count":53897,"max":[0.9999720454216003,0.9999955296516418,1],"min":[-0.9999820590019226,-0.9999747276306152,-1],"type":"VEC3"},{"bufferView":0,"componentType":5125,"count":317010,"type":"SCALAR"}],"asset":{"extras":{"author":"242trevor (https://sketchfab.com/242trevor)","license":"CC-BY-4.0 (http://creativecommons.org/licenses/by/4.0/)","source":"https://sketchfab.com/3d-models/alien-3749183d94e94d74af081572d5d83f6a","title":"Alien,"},"generator":"Sketchfab-12.68.0","version":"2.0"},"bufferViews":[{"buffer":0,"byteLength":1268040,"name":"floatBufferViews","target":34963},{"buffer":0,"byteLength":1293528,"byteOffset":1268040,"byteStride":12,"name":"floatBufferViews","target":34962}],"buffers":[{"byteLength":2561568,"uri":"data:application/octet-stream;base64,"}],"materials":[{"doubleSided":true,"name":"Scene_-_Root","pbrMetallicRoughness":{"metallicFactor":0,"roughnessFactor":0.6}}],"meshes":[{"name":"Object_0","primitives":[{"attributes":{"NORMAL":1,"POSITION":0},"indices":2,"material":0,"mode":4}]}],"nodes":[{"children":[1],"matrix":[1,0,0,0,0,2.220446049250313e-16,-1,0,0,1,2.220446049250313e-16,0,0,0,0,1],"name":"Sketchfab_model"},{"children":[2],"matrix":[1,0,0,0,0,1,0,0,0,0,1,0,-50.4412841796875,0.10208845138549805,0,1],"name":"Alien,.stl.cleaner.gles"},{"mesh":0,"name":"Object_2"}],"scene":0,"scenes":[{"name":"Sketchfab_Scene","nodes":[0]}]}